<svg xmlns="http://www.w3.org/2000/svg" viewBox="0 0 24 24" id="newspaper">
  <g>
    <path fill="#8fe5b2" d="M20,5.25H17a.75.75,0,0,0-.75.75V19.5a3.25,3.25,0,0,0,6.5,0V8A2.752,2.752,0,0,0,20,5.25Z"></path>
    <path fill="#c2f2d6" d="M19.79,22.69a.717.717,0,0,1-.29.06H6A4.754,4.754,0,0,1,1.25,18V4A2.748,2.748,0,0,1,4,1.25H15A2.748,2.748,0,0,1,17.75,4V20.13A2.646,2.646,0,0,0,19.79,22.69Z"></path>
    <rect width="10.5" height="5.5" x="4.25" y="4.75" fill="#8fe5b2" rx="1.75"></rect>
    <path fill="#2ecf83" d="M11 17.25H5a.75.75 0 010-1.5h6a.75.75 0 010 1.5zM14 14.25H5a.75.75 0 010-1.5h9a.75.75 0 010 1.5zM13 11.75H6A1.752 1.752 0 014.25 10V6A1.752 1.752 0 016 4.25h7A1.752 1.752 0 0114.75 6v4A1.752 1.752 0 0113 11.75zm-7-6A.25.25 0 005.75 6v4a.25.25 0 00.25.25h7a.25.25 0 00.25-.25V6A.25.25 0 0013 5.75z"></path>
    <path fill="#2ecf83" d="M11 17.75H5a.75.75 0 010-1.5h6a.75.75 0 010 1.5zM14 14.75H5a.75.75 0 010-1.5h9a.75.75 0 010 1.5zM19.5 22.75a3.254 3.254 0 01-3.25-3.25V6a.75.75 0 011.5 0V19.5a1.75 1.75 0 003.5 0V8A1.252 1.252 0 0020 6.75a.75.75 0 010-1.5A2.752 2.752 0 0122.75 8V19.5A3.254 3.254 0 0119.5 22.75z"></path>
    <path fill="#2ecf83" d="M19.5,22.75H6A4.756,4.756,0,0,1,1.25,18V4A2.752,2.752,0,0,1,4,1.25H15A2.752,2.752,0,0,1,17.75,4V19.5a1.752,1.752,0,0,0,1.75,1.75.75.75,0,0,1,0,1.5ZM4,2.75A1.252,1.252,0,0,0,2.75,4V18A3.254,3.254,0,0,0,6,21.25H16.763a3.226,3.226,0,0,1-.513-1.75V4A1.252,1.252,0,0,0,15,2.75Z"></path>
  </g>
</svg>
